<svg width="62" height="26" viewBox="0 0 62 26" fill="none" xmlns="http://www.w3.org/2000/svg">
<path d="M12.48 11.792C10.656 10.928 8.864 10.928 8.704 10.928C7.072 10.928 5.504 9.968 5.504 8.112C5.504 6.064 6.944 5.008 8.704 5.008C10.368 5.008 11.776 5.872 11.84 7.696C11.84 7.792 12 7.952 12.192 7.952H16.192C16.416 7.952 16.576 7.792 16.544 7.696C16.48 3.344 13.088 0.4 8.704 0.4C4.608 0.4 0.736 3.312 0.736 8.112C0.736 11.088 2.24 13.36 4.896 14.576C6.752 15.44 8.48 15.44 8.704 15.44C10.144 15.504 11.904 16.656 11.904 18.544C11.904 20.24 10.4 21.392 8.704 21.392H8.672V26H8.704C12.8 26 16.64 23.344 16.64 18.544C16.64 15.536 15.168 13.04 12.48 11.792ZM60.9253 0.4H56.7973C56.5733 0.4 56.4132 0.559999 56.4132 0.688V17.36L44.6053 0.495998C44.5733 0.431999 44.3813 0.4 44.3173 0.4H40.0613C39.9013 0.4 39.7413 0.559999 39.7413 0.688V19.856H44.6373V9.04L56.4132 25.904C56.4453 25.968 56.6373 26 56.7013 26H60.9253C61.1493 26 61.2773 25.84 61.2773 25.712V0.688C61.2773 0.559999 61.1493 0.4 60.9253 0.4Z" fill="#D34457"/>
<path d="M18.335 0.688V11.504H23.231V0.688C23.231 0.559999 23.103 0.4 22.879 0.4H18.687C18.495 0.4 18.335 0.559999 18.335 0.688ZM18.335 25.712C18.335 25.84 18.495 26 18.687 26H22.879C23.103 26 23.231 25.84 23.231 25.712V21.2H32.927V25.712C32.927 25.84 33.087 26 33.279 26H37.471C37.695 26 37.823 25.84 37.823 25.712V0.688C37.823 0.559999 37.695 0.4 37.471 0.4H33.279C33.087 0.4 32.927 0.559999 32.927 0.688V16.432H23.231V16.4H18.335V25.712Z" fill="black"/>
</svg>
